HIERARCHY
ROOT Hips
{
 OFFSET 0.000000 0.000000 0.000000
 CHANNELS 6 Xposition Yposition Zposition Yrotation Xrotation Zrotation
 JOINT Chest
 {
  OFFSET 0.000000 9.585900 0.002600
  CHANNELS 3 Yrotation Xrotation Zrotation
  JOINT Chest2
  {
   OFFSET 0.000000 9.601200 -0.005300
   CHANNELS 3 Yrotation Xrotation Zrotation
   JOINT Chest3
   {
    OFFSET 0.000000 9.561800 0.000000
    CHANNELS 3 Yrotation Xrotation Zrotation
    JOINT Chest4
    {
     OFFSET 0.000000 9.552100 0.000000
     CHANNELS 3 Yrotation Xrotation Zrotation
     JOINT Neck
     {
      OFFSET 0.000000 14.453000 0.000000
      CHANNELS 3 Yrotation Xrotation Zrotation
      JOINT Head
      {
       OFFSET 0.000000 8.936500 -0.011300
       CHANNELS 3 Yrotation Xrotation Zrotation
       End Site
       {
        OFFSET 0.000000 17.073600 -0.006000
       }
      }
     }
     JOINT RightCollar
     {
      OFFSET -2.921100 9.558500 0.000000
      CHANNELS 3 Yrotation Xrotation Zrotation
      JOINT RightShoulder
      {
       OFFSET -13.519700 0.000000 0.000000
       CHANNELS 3 Yrotation Xrotation Zrotation
       JOINT RightElbow
       {
        OFFSET 0.000000 -29.696600 0.000000
        CHANNELS 3 Yrotation Xrotation Zrotation
        JOINT RightWrist
        {
         OFFSET 0.000000 -24.004700 0.000000
         CHANNELS 3 Yrotation Xrotation Zrotation
         End Site
         {
          OFFSET 0.000000 -17.728500 0.000000
         }
        }
       }
      }
     }
     JOINT LeftCollar
     {
      OFFSET 2.921100 9.558500 0.000000
      CHANNELS 3 Yrotation Xrotation Zrotation
      JOINT LeftShoulder
      {
       OFFSET 13.519700 0.000000 0.000000
       CHANNELS 3 Yrotation Xrotation Zrotation
       JOINT LeftElbow
       {
        OFFSET 0.000000 -29.696600 0.000000
        CHANNELS 3 Yrotation Xrotation Zrotation
        JOINT LeftWrist
        {
         OFFSET 0.000000 -24.004700 0.000000
         CHANNELS 3 Yrotation Xrotation Zrotation
         End Site
         {
          OFFSET 0.000000 -17.728500 0.000000
         }
        }
       }
      }
     }
    }
   }
  }
 }
 JOINT RightHip
 {
  OFFSET -7.771700 -0.012900 -0.001300
  CHANNELS 3 Yrotation Xrotation Zrotation
  JOINT RightKnee
  {
   OFFSET 0.000000 -40.869800 0.001200
   CHANNELS 3 Yrotation Xrotation Zrotation
   JOINT RightAnkle
   {
    OFFSET 0.000000 -39.717900 0.002100
    CHANNELS 3 Yrotation Xrotation Zrotation
    JOINT RightToe
    {
     OFFSET 0.000000 -4.965400 11.033500
     CHANNELS 3 Yrotation Xrotation Zrotation
     End Site
     {
      OFFSET 0.000000 -1.423100 5.872300
     }
    }
   }
  }
 }
 JOINT LeftHip
 {
  OFFSET 7.771700 -0.012900 -0.001300
  CHANNELS 3 Yrotation Xrotation Zrotation
  JOINT LeftKnee
  {
   OFFSET 0.000000 -40.869800 0.001200
   CHANNELS 3 Yrotation Xrotation Zrotation
   JOINT LeftAnkle
   {
    OFFSET 0.000000 -39.717900 0.002100
    CHANNELS 3 Yrotation Xrotation Zrotation
    JOINT LeftToe
    {
     OFFSET 0.000000 -4.965400 11.033500
     CHANNELS 3 Yrotation Xrotation Zrotation
     End Site
     {
      OFFSET 0.000000 -1.423100 5.872300
     }
    }
   }
  }
 }
}
MOTION
Frames: 9
Frame Time: 0.008333
0.000000 85.388000 0.000000 0.000000 -5.767877 0.000000 0.000000 11.653817 0.000000 0.000000 -5.885947 0.000000 0.000000 -0.000000 0.000000 0.000000 -0.000000 0.000000 0.000000 12.528835 0.000000 0.000000 0.711642 0.000000 0.000000 -0.000000 0.000000 0.000000 0.000000 -90.000000 0.000000 -2.309062 0.000000 0.000000 2.309062 0.000000 0.000000 -0.000000 0.000000 0.000000 -0.000000 90.000000 0.000000 -2.309062 0.000000 0.000000 2.309062 0.000000 0.000000 8.520406 0.000000 0.000000 1.905762 0.000000 -0.000000 -4.658285 0.000000 0.000000 -0.000000 0.000000 0.000000 8.520406 0.000000 0.000000 1.905762 0.000000 -0.000000 -4.658285 0.000000 0.000000 -0.000000 0.000000
-24.532033 55.233367 38.814716 178.551129 -32.096625 -10.288028 0.027568 14.712145 6.092285 -0.016054 8.440823 2.884622 0.019385 10.421836 3.484379 -0.023058 8.409842 2.847956 10.193454 20.423888 -5.495580 12.801439 -3.055028 -8.563362 -0.697106 3.515858 -3.489117 -19.234879 -6.858843 4.185748 71.663787 -85.330004 -53.328317 10.436591 -3.412162 -12.430383 -10.486058 3.579853 -2.249743 10.531106 -3.332009 -1.590600 -99.487259 -77.296869 109.063350 18.032024 -19.358986 3.996966 -18.354602 -35.153990 7.495004 23.869706 84.352425 18.822040 -2.369567 -14.664669 1.679503 -0.145567 0.974035 -0.055125 -14.033973 -45.357492 16.146124 179.541598 79.752029 174.153000 -1.745995 -18.642744 2.256843 0.017647 -0.555542 -0.014482
-24.553454 55.243553 38.832601 178.501714 -32.091654 -10.330398 0.068705 14.661312 6.111146 -0.002745 8.425387 2.875944 0.021087 10.386795 3.465906 -0.017320 8.361532 2.814109 9.887793 20.266393 -5.679502 12.483073 -3.286931 -8.721776 -0.715624 3.471125 -3.450698 -19.204467 -6.576013 4.305967 69.301839 -85.021854 -50.862752 10.368814 -3.570834 -12.423949 -10.392610 3.550301 -2.284816 10.387186 -3.204366 -1.571700 -95.414598 -75.596884 105.359188 17.580817 -20.100081 3.904043 -18.320441 -35.135243 7.587166 23.683889 84.286565 18.583953 -2.360326 -14.601572 1.729880 -0.172812 0.973797 -0.047889 -14.069836 -45.354935 16.217730 179.479425 79.760653 174.100507 -1.728346 -18.631369 2.240448 0.020950 -0.555614 -0.011267
-24.585319 55.255622 38.851827 178.467107 -32.088925 -10.355566 0.086789 14.609308 6.099117 -0.007021 8.355841 2.817393 0.045761 10.404403 3.495943 -0.010652 8.338278 2.801780 9.586267 20.094650 -5.871681 12.176743 -3.508485 -8.861583 -0.732926 3.403493 -3.434259 -19.169839 -6.310776 4.419166 65.521918 -84.853214 -46.989358 10.216933 -3.777486 -12.422537 -10.299832 3.508013 -2.336371 10.285657 -3.065756 -1.550957 -92.501667 -74.074704 102.682479 17.155602 -20.690252 3.771409 -18.308297 -35.117581 7.656181 23.487864 84.219224 18.311577 -2.366681 -14.535641 1.796914 -0.184444 0.973122 -0.049464 -14.083963 -45.356427 16.225145 179.289394 79.776923 173.933167 -1.706671 -18.608834 2.219012 0.024461 -0.558539 -0.010068
-24.622668 55.270151 38.871499 178.434344 -32.093386 -10.380125 0.097780 14.560555 6.078456 -0.004674 8.313831 2.788663 0.058414 10.391616 3.495055 -0.004662 8.313925 2.788707 9.304377 19.930344 -6.041733 11.888636 -3.719497 -8.980876 -0.745380 3.337327 -3.414984 -19.121320 -6.046920 4.545511 60.931989 -84.746397 -42.328578 10.015186 -4.012513 -12.424364 -10.201772 3.479143 -2.383617 10.223603 -2.909456 -1.523504 -90.401624 -72.831489 100.682388 16.761229 -21.146437 3.606435 -18.260196 -35.093992 7.700312 23.053602 84.152900 17.824477 -2.368881 -14.466712 1.867162 -0.201555 0.971338 -0.041226 -14.070943 -45.354508 16.197665 178.996578 79.795108 173.685155 -1.686200 -18.583584 2.209957 0.024043 -0.560671 -0.018461
-24.666646 55.285803 38.891023 178.418027 -32.096626 -10.397040 0.083687 14.510184 6.034324 0.000389 8.288109 2.773576 0.064213 10.359414 3.476184 0.000368 8.288174 2.773632 9.044893 19.774912 -6.187027 11.621144 -3.918513 -9.077462 -0.750574 3.267363 -3.387195 -19.058387 -5.783947 4.682392 56.160839 -84.624260 -37.515918 9.804484 -4.263221 -12.431704 -10.097881 3.458792 -2.422912 10.190914 -2.728979 -1.482374 -88.852074 -71.924313 99.105193 16.420848 -21.490442 3.403852 -18.229787 -35.071697 7.714699 22.557365 84.085650 17.272501 -2.347256 -14.401988 1.932563 -0.206605 0.972614 -0.034795 -14.062506 -45.351230 16.155151 178.787304 79.821188 173.505090 -1.657184 -18.557896 2.191445 0.026726 -0.561413 -0.013220
-24.770205 55.284588 38.917300 178.276371 -32.014471 -10.002931 0.086436 14.382273 5.668440 -0.015999 8.233108 2.722175 0.068469 10.325707 3.454380 0.004282 8.261126 2.756189 8.804009 19.628798 -6.306135 11.369111 -4.105920 -9.148603 -0.748897 3.188907 -3.349990 -18.986481 -5.521457 4.829993 52.100185 -84.425270 -33.448596 9.617164 -4.526259 -12.457242 -9.995658 3.443608 -2.451229 10.180280 -2.525460 -1.427874 -87.664010 -71.367749 97.781955 16.154299 -21.735209 3.150431 -17.941992 -35.461801 7.375609 22.769736 84.232034 17.418275 -2.402067 -13.925110 1.997551 -0.098254 0.550532 0.003186 -13.639988 -45.514779 15.607911 178.265653 79.904591 172.976336 -1.647717 -18.486280 2.206944 0.046873 -0.565779 -0.006960
-24.815219 55.303383 38.932428 178.258487 -32.033908 -10.036187 0.069609 14.333967 5.616725 0.015692 8.260175 2.764296 0.047238 10.249447 3.388283 0.007145 8.233327 2.737413 8.576248 19.490467 -6.400593 11.126312 -4.284105 -9.194723 -0.747353 3.103036 -3.308266 -18.905625 -5.264293 4.988977 49.428484 -84.125828 -30.803463 9.480914 -4.798605 -12.516211 -9.898332 3.432529 -2.469789 10.182611 -2.309412 -1.366878 -86.706657 -71.145010 96.605491 15.956542 -21.885666 2.855504 -17.941419 -35.405454 7.363852 22.265012 84.148008 16.885659 -2.316720 -13.885443 2.013444 -0.119614 0.574156 -0.010379 -13.631015 -45.489132 15.577671 177.990642 79.925675 172.738532 -1.641038 -18.468682 2.217388 0.063960 -0.566835 -0.031817
-24.854232 55.321806 38.947851 178.204906 -32.044758 -10.087611 0.091905 14.275898 5.600633 0.046823 8.283261 2.807803 0.025030 10.175151 3.321954 0.009335 8.204827 2.718520 8.357989 19.359481 -6.472980 10.889048 -4.453856 -9.217746 -0.752431 3.016905 -3.267253 -18.814558 -5.021475 5.157350 48.260651 -83.738249 -29.680186 9.423803 -5.058108 -12.628014 -9.802258 3.424541 -2.480863 10.181523 -2.090269 -1.309046 -85.885290 -71.211687 95.506971 15.799403 -21.941588 2.550048 -17.947963 -35.352144 7.440915 21.342881 84.076005 15.904573 -2.251036 -13.817852 2.060911 -0.132889 0.576207 -0.010565 -13.638203 -45.465912 15.629427 177.772137 79.937567 172.543310 -1.638826 -18.460916 2.218627 0.060990 -0.567059 -0.031197
